<svg width="34" height="34" viewBox="0 0 34 34" fill="none" xmlns="http://www.w3.org/2000/svg">
<rect width="34" height="34" rx="10" fill="#FF6A39"/>
<path d="M23.9375 11.475L22.525 10.0625C21.775 9.3125 20.5562 9.3125 19.8062 10.0625L17.4375 12.4375L10.4438 19.425C9.83125 20.0375 9.5 20.8438 9.5 21.7063V23.875C9.5 24.2188 9.78125 24.5 10.125 24.5H12.2938C13.1563 24.5 13.9625 24.1625 14.575 23.5562L21.5687 16.5688L23.9375 14.1938C24.3 13.8313 24.5 13.35 24.5 12.8375C24.5 12.325 24.3 11.8438 23.9375 11.4813V11.475ZM13.6875 22.6687C13.3125 23.0437 12.8188 23.25 12.2938 23.25H10.75V21.7063C10.75 21.1813 10.9562 20.6812 11.3312 20.3125L17.8813 13.7688L20.2438 16.1312L13.6937 22.6812L13.6875 22.6687ZM23.0563 13.3063L21.1313 15.2375L18.7688 12.875L20.6938 10.9437C20.9563 10.6812 21.3813 10.6812 21.6438 10.9437L23.0563 12.3562C23.1813 12.4812 23.25 12.65 23.25 12.8312C23.25 13.0125 23.1813 13.175 23.0563 13.3063ZM23.25 23.25H17C16.6562 23.25 16.375 23.5312 16.375 23.875C16.375 24.2188 16.6562 24.5 17 24.5H23.25C23.5938 24.5 23.875 24.2188 23.875 23.875C23.875 23.5312 23.5938 23.25 23.25 23.25Z" fill="white"/>
</svg>
